<?xml version="1.0" standalone="no"?><!DOCTYPE svg PUBLIC "-//W3C//DTD SVG 1.1//EN" "http://www.w3.org/Graphics/SVG/1.1/DTD/svg11.dtd"><svg t="1511068559671" class="icon" style="" viewBox="0 0 1024 1024" version="1.1" xmlns="http://www.w3.org/2000/svg" p-id="4486" xmlns:xlink="http://www.w3.org/1999/xlink" width="200" height="200"><defs><style type="text/css"></style></defs><path d="M213.119889 616.832603c20.765953 87.001493 47.187719 125.029598 135.363967 164.882258 88.176249 39.898709 130.070404 83.353406 164.680666 83.353407s73.834612-38.075177 162.011884-77.973886c88.176249-39.85266 64.650439-51.967582 85.416392-139.015124L513.164522 772.406868 213.119889 616.832603zM939.161776 389.739469L566.233182 173.825954c-29.226648-16.932648-77.001745-16.932648-106.273419 0L87.075171 389.739469c-29.226648 16.932648-29.226648 44.623313 0 61.508889L459.959763 667.115823c29.226648 16.932648 77.04677 16.932648 106.273419 0l241.048985-139.529846-261.362636-63.333444c-10.133801 2.572592-21.173229 4.022617-32.800034 4.022616-47.096644 0-85.281315-23.480784-85.281315-52.435232 0-28.953426 38.184671-52.435233 85.281315-52.435233 36.555567 0 67.636446 14.172791 79.761602 34.098609l276.881074 93.924159 69.400627-40.180118c29.225625-16.883529 29.225625-44.575218-0.001024-61.507865zM825.198212 798.881846c-2.849908 17.820877 57.502645 47.102784 63.20246-5.004991 25.923416-234.857982-18.639522-302.447357-18.639522-302.447356l-62.478983 36.157501c0-0.001023 52.978609 52.106752 17.916045 271.294846z" fill="#2BB594" p-id="4487"></path></svg>