<?xml version="1.0" standalone="no"?><!DOCTYPE svg PUBLIC "-//W3C//DTD SVG 1.1//EN" "http://www.w3.org/Graphics/SVG/1.1/DTD/svg11.dtd"><svg t="1510150311966" class="icon" style="" viewBox="0 0 1024 1024" version="1.1" xmlns="http://www.w3.org/2000/svg" p-id="2206" xmlns:xlink="http://www.w3.org/1999/xlink" width="200" height="200"><defs><style type="text/css"></style></defs><path d="M785.066667 771.4816h-546.133334A44.373333 44.373333 0 1 1 238.933333 682.666667h546.133334a44.373333 44.373333 0 1 1 0 88.814933z" fill="#EC569E" p-id="2207"></path><path d="M512 965.973333a44.373333 44.373333 0 0 1-44.373333-44.373333v-341.333333a44.373333 44.373333 0 1 1 88.746666 0v341.333333a44.373333 44.373333 0 0 1-44.373333 44.373333z" fill="#EC569E" p-id="2208"></path><path d="M512 590.506667c-156.194133 0-283.306667-127.112533-283.306667-283.306667S355.805867 23.893333 512 23.893333 795.306667 151.005867 795.306667 307.2 668.194133 590.506667 512 590.506667z m0-477.866667c-107.246933 0-194.56 87.313067-194.56 194.56S404.753067 501.76 512 501.76 706.56 414.446933 706.56 307.2 619.246933 112.64 512 112.64z" fill="#EC569E" p-id="2209"></path></svg>