<?xml version="1.0" standalone="no"?><!DOCTYPE svg PUBLIC "-//W3C//DTD SVG 1.1//EN" "http://www.w3.org/Graphics/SVG/1.1/DTD/svg11.dtd"><svg t="1510157782309" class="icon" style="" viewBox="0 0 1024 1024" version="1.1" xmlns="http://www.w3.org/2000/svg" p-id="7582" xmlns:xlink="http://www.w3.org/1999/xlink" width="200" height="200"><defs><style type="text/css"></style></defs><path d="M766.186694 453.715153 766.186694 311.694409c0 0-128.129522-67.804705-255.384771-67.804705-127.28763 0-251.466734 69.747534-251.466734 69.747534l0 114.303061c-36.49279 68.905641-34.647103 138.782697-34.647103 138.782697l21.597774 352.655705-10.847458 104.58892 268.110296 0-78.781685-149.371111 23.3787-5.828485 0-88.884392c-90.050089-28.23577-156.462434-108.474576-163.909942-205.842651l61.717177 8.839868 0 37.723248 161.967114 0 0-26.681508 28.494814 0 0 26.681508 161.934733 0 0-36.751834 51.484948-7.997976c-2.946623 81.534025-45.073615 190.62383-170.159373 206.846446l0 82.958765 0.388566 0 29.790033 14.182646-80.076904 144.125474 154.195801 0c0.550468-3.270428 1.100936-6.443714 1.651404-9.746522l1.35998 9.746522 101.707058 0-15.963572-144.352138c5.180875-38.370858 22.73109-98.469011 25.321528-158.534784 2.299013-52.97445 4.889451-168.540349-33.546167-268.077916C765.603845 453.423729 766.186694 453.715153 766.186694 453.715153zM489.916519 602.600557 364.02125 602.600557l0-64.080951 125.895269 0L489.916519 602.600557zM680.410827 602.600557l-125.92765 0 0-64.080951 125.92765 0L680.410827 602.600557zM698.414369 556.523147l0-36.007083-161.934733 0 0 37.528965-28.494814 0 0-37.528965L346.017708 520.516064l0 35.132811-62.461928-9.001771c0.485707-4.533266 1.133316-9.001771 1.586643-13.696939 65.117126-4.371364 138.620794-55.72679 144.384518-127.093347 82.278776 68.193271 199.010372 71.528459 296.281305 80.271186 12.077916 5.634202 21.014925 30.113838 23.572983 62.559069L698.414369 556.523147z" p-id="7583" fill="#8a8a8a"></path><path d="M908.40172 280.285353l50.416393-27.102454-50.416393-27.911966L908.40172 212.059701c0 0 14.182646-71.949406-66.444726-34.323299-4.11232 2.201872-6.281811 4.500885-7.220845 6.670377L502.156337 0 65.149507 250.106754l165.043258 74.960789L230.192765 300.71743c0 0 138.458892-77.74551 280.447255-77.74551 141.891222 0 284.721477 75.576018 284.721477 75.576018l0 42.515558 91.086264-48.926891c0 56.698204 0 177.898305 0 198.136099l-30.30812 0 0 70.395143 40.313686-27.847205 44.74981 27.847205 0-70.395143-32.801417 0L908.40172 280.285353zM886.415381 199.852264c0 1.683784 0 6.346572 0 13.243612l-26.584366-14.733114C869.577536 191.886668 886.415381 183.014419 886.415381 199.852264zM877.44599 277.533013c-11.786491 0-21.30635-9.552239-21.30635-21.273969 0-11.786491 9.519858-21.33873 21.30635-21.33873 11.754111 0 21.273969 9.552239 21.273969 21.33873C898.71996 267.980774 889.200101 277.533013 877.44599 277.533013z" p-id="7584" fill="#8a8a8a"></path></svg>