<?xml version="1.0" standalone="no"?><!DOCTYPE svg PUBLIC "-//W3C//DTD SVG 1.1//EN" "http://www.w3.org/Graphics/SVG/1.1/DTD/svg11.dtd"><svg t="1510150298239" class="icon" style="" viewBox="0 0 1024 1024" version="1.1" xmlns="http://www.w3.org/2000/svg" p-id="1540" xmlns:xlink="http://www.w3.org/1999/xlink" width="200" height="200"><defs><style type="text/css"></style></defs><path d="M910.562 64.685H666.566c-27.614 0-50 22.386-50 50s22.386 50 50 50h116.06L630.884 316.441c-60.893-44.471-134.534-68.654-210.778-68.654-95.291 0-184.787 37.026-251.97 104.225-67.33 67.346-104.421 157.001-104.421 252.434 0 95.483 37.092 185.139 104.421 252.434 67.326 67.359 156.981 104.436 252.449 104.436 95.432 0 185.103-37.062 252.419-104.436 125.286-125.241 138.37-322.339 35.601-462.712l151.958-151.971v116.487c0 27.614 22.386 50 50 50s50-22.386 50-50V114.685c-0.001-27.614-22.386-50-50.001-50zM595.474 779.348C548.838 826 486.727 851.707 420.585 851.674c-66.177 0.034-128.283-25.673-174.919-72.325-96.445-96.43-96.46-253.362 0-349.821 46.636-46.622 108.757-72.326 174.919-72.326 66.142 0 128.253 25.704 174.888 72.326 96.489 96.458 96.441 253.376 0.001 349.82z" fill="#00ACFF" p-id="1541"></path></svg>