<?xml version="1.0" standalone="no"?><!DOCTYPE svg PUBLIC "-//W3C//DTD SVG 1.1//EN" "http://www.w3.org/Graphics/SVG/1.1/DTD/svg11.dtd"><svg t="1510157057724" class="icon" style="" viewBox="0 0 1024 1024" version="1.1" xmlns="http://www.w3.org/2000/svg" p-id="4100" xmlns:xlink="http://www.w3.org/1999/xlink" width="200" height="200"><defs><style type="text/css"></style></defs><path d="M985.952711 818.460444c-0.182044-43.6224-30.776889-44.669156-67.333689-59.2896l-170.666666-68.357688a200.829156 200.829156 0 0 1-8.783645-3.6864v-0.068267c-30.344533-13.732978-57.127822-32.847644-66.946844-46.2848l-0.386845-0.420978-0.113778-0.227555c-0.568889-0.864711-1.171911-1.752178-1.672533-2.605512l-0.398222-0.705422-0.068267-0.182044-0.352711-0.432356v-0.022755c-4.539733-6.849422-9.136356-9.898667-13.027555-8.578845l-0.238934 0.1024-0.113778 0.034134-0.022755 0.022755-0.227556 0.091022-0.159289 0.034134-0.216177 0.2048c-4.608 2.400711-3.697778-0.238933-5.563734-5.3248-4.619378-12.470044-12.242489-36.226844-13.403022-39.708445-1.774933-6.508089-6.530844 10.262756-5.449955-7.827911l1.934222-32.756622c3.151644-3.3792 5.688889-6.132622 7.418311-8.032711 11.116089-12.720356 11.889778-46.307556 17.453511-54.499556 5.575111-8.203378 16.748089-9.966933 27.875556-48.093866 11.150222-38.161067 24.746667-92.649244 10.410666-93.536712-3.527111-0.238933-7.509333 2.048-11.628089 5.677512 2.514489-14.006044 7.827911-45.784178 9.022578-69.233778 1.604267-30.890667-3.527111-110.114133-21.0944-139.138845-10.979556-18.147556-33.143467-36.124444-55.227733-50.141866a285.889422 285.889422 0 0 0-37.228089-20.150045c-32.164978-14.267733-133.575111-7.714133-167.913245 0-39.128178 8.760889-66.548622 33.314133-84.0704 62.350222-17.499022 29.070222-25.270044 116.201244-23.745422 147.091912 0.739556 13.858133 9.033956 37.239467 11.138845 51.5072 1.194667 7.441067 2.298311 7.497956 3.231289 12.822755a10.0352 10.0352 0 0 0-4.1984-0.773689c-14.347378 0.887467-0.785067 55.375644 10.353777 93.536711 11.172978 38.126933 22.277689 39.890489 27.875556 48.093867 5.575111 8.192 6.360178 41.767822 17.544533 54.499556 1.763556 2.013867 4.448711 4.960711 7.7824 8.4992l2.127645 26.715022 3.754666 14.882133c-1.718044-4.278044-5.108622-7.031467-6.701511-1.456355l-14.404266 43.770311a2.912711 2.912711 0 0 0-2.184534-1.240178c-4.653511-4.096-10.899911-0.534756-16.5888 8.942933-8.430933 14.051556-36.340622 34.269867-68.7104 48.878934l-0.455111 1.752177-0.455111 1.729423-0.170667 0.694044c-2.56 1.149156-5.108622 2.218667-7.714133 3.242667L95.584711 759.1936c-36.511289 14.620444-67.140267 15.6672-67.333689 59.2896L0 967.111111h1024l-38.047289-148.650667z" p-id="4101" fill="#8a8a8a"></path></svg>