<?xml version="1.0" standalone="no"?><!DOCTYPE svg PUBLIC "-//W3C//DTD SVG 1.1//EN" "http://www.w3.org/Graphics/SVG/1.1/DTD/svg11.dtd"><svg t="1526014662718" class="icon" style="" viewBox="0 0 1081 1024" version="1.1" xmlns="http://www.w3.org/2000/svg" p-id="2203" xmlns:xlink="http://www.w3.org/1999/xlink" width="211.1328125" height="200"><defs><style type="text/css"></style></defs><path d="M979.2 153.6H576L499.2 44.8C492.8 38.4 480 32 473.6 32H102.4C44.8 32 0 76.8 0 134.4v748.8c0 57.6 44.8 102.4 102.4 102.4h876.8c57.6 0 102.4-44.8 102.4-102.4V256c0-51.2-44.8-102.4-102.4-102.4z m38.4 736c0 19.2-19.2 38.4-38.4 38.4H102.4c-19.2 0-38.4-19.2-38.4-38.4V134.4c0-19.2 19.2-38.4 38.4-38.4H454.4l76.8 108.8c6.4 6.4 12.8 12.8 25.6 12.8h422.4c19.2 0 38.4 19.2 38.4 38.4v633.6z" fill="#7940b5" p-id="2204"></path><path d="M838.4 524.8L697.6 384c-12.8-12.8-32-12.8-44.8 0s-12.8 32 0 44.8l108.8 108.8H288c-19.2 6.4-32 19.2-32 38.4s12.8 32 32 32h467.2L646.4 716.8c-12.8 12.8-12.8 32 0 44.8 6.4 6.4 12.8 6.4 25.6 6.4 6.4 0 19.2 0 25.6-6.4l128-134.4c6.4 0 6.4-6.4 12.8-6.4 6.4-6.4 12.8-19.2 19.2-32V576c0-19.2-6.4-38.4-19.2-51.2z" fill="#7940b5" p-id="2205"></path></svg>