<?xml version="1.0" standalone="no"?><!DOCTYPE svg PUBLIC "-//W3C//DTD SVG 1.1//EN" "http://www.w3.org/Graphics/SVG/1.1/DTD/svg11.dtd"><svg t="1510744718886" class="icon" style="" viewBox="0 0 1024 1024" version="1.1" xmlns="http://www.w3.org/2000/svg" p-id="4564" xmlns:xlink="http://www.w3.org/1999/xlink" width="200" height="200"><defs><style type="text/css"></style></defs><path d="M576.199945 993.288446l17.044913-99.45425-71.865037-70.431832c-24.953138-24.262128-33.808303-57.072305-23.92942-87.527929s36.214041-51.518632 70.431831-56.50926l86.913699-12.745295a108.514159 108.514159 0 0 1-10.313964-7.959412c-10.877009-9.546175-18.58049-19.680988-23.315188-30.020544a86.760141 86.760141 0 0 1-8.112969-31.428157c-0.588638-10.5443 0-20.883857 1.970658-31.044263 1.38202-8.164155 3.557422-15.125441 6.142311-20.883857 2.559296-5.784009 5.911974-10.5443 10.083627-14.741546 4.14606-3.966909 8.7272-7.959411 14.25528-11.542426 5.52808-3.787758 11.107345-8.164155 17.224063-13.717828 5.323336-4.785884 10.083627-11.337682 14.639175-19.885731 4.171653-8.368899 8.112969-17.096099 11.465646-25.874484 3.352678-9.955662 6.551798-20.704706 9.085502-31.428158 6.730949-1.996251 13.078004-5.579266 19.220314-11.158531 5.323336-4.785884 10.10922-11.337682 14.639175-19.885732 4.120467-8.548049 7.498738-19.680988 9.469396-34.013046 1.407613-10.953788 1.202869-19.885731-0.383895-27.461248a66.797631 66.797631 0 0 0-6.551798-18.298968 25.74652 25.74652 0 0 0-11.05616-12.310215 470.014746 470.014746 0 0 0-5.169778-81.385619 423.333183 423.333183 0 0 0-17.607958-73.605358 235.967109 235.967109 0 0 0-38.005548-71.609108 154.965385 154.965385 0 0 0-29.457499-28.049886c-11.875134-9.16228-25.951263-17.300842-41.38382-24.876359-15.611707-7.549924-32.247132-13.538677-50.059833-18.298968A218.052036 218.052036 0 0 0 485.396116 0c-15.611707 0-31.658494 1.612357-48.114768 4.197246a231.795456 231.795456 0 0 0-49.061708 14.332058 220.329809 220.329809 0 0 0-48.114769 28.049887c-15.81645 11.92632-30.07173 27.051761-42.94499 45.350728a226.753643 226.753643 0 0 0-30.865112 66.055435 426.916198 426.916198 0 0 0-14.639174 69.228962 476.540951 476.540951 0 0 0-4.14606 77.367524 71.020469 71.020469 0 0 0-12.284622 21.472495 90.010447 90.010447 0 0 0-5.52808 23.903827c-1.177276 9.136687 0 19.680988 3.352678 31.018669 3.608608 11.542426 7.549924 20.295219 12.259029 26.463123 4.760291 6.167904 9.111094 10.928195 13.282747 14.332059 4.760291 3.583015 9.494989 5.758416 14.229687 7.166029 3.403864 10.723451 6.756542 21.293344 10.10922 31.428157 3.403864 8.752793 6.935693 17.300842 11.132939 25.848892 4.14606 8.548049 8.701607 15.125441 14.229686 19.911324 11.695984 9.546175 21.805204 18.682862 30.865113 27.435655 9.111094 8.752793 14.280873 21.293344 15.637299 37.596062 0.588638 10.339557 0.998126 19.885731 0.998126 28.638524 0 8.957537-1.586764 17.326435-4.58114 25.464997-2.943191 8.164155-8.496863 16.32831-16.200345 24.466872-7.754667 8.164155-18.631676 16.712204-32.861363 25.464997-17.4544 11.542426-37.800805 20.295219-61.192772 26.463122-23.315188 6.167904-125.047212 41.383819-147.005974 48.933744-21.779611 7.370773-40.999925 17.531179-57.174677 30.430031-16.021194 12.745295-26.130414 31.837645-30.302067 56.918748-6.730949 43.354478-8.112969 50.315763-4.555547 78.186498 3.557422 27.640399 9.085501 44.173452 16.609832 49.727125 6.142311 4.58114 23.545525 10.160406 52.644723 16.712205C100.247632 989.116793 283.134938 1023.718477 495.479743 1023.718477c27.691585 0 54.410637-0.588638 80.131564-1.791507a98.840019 98.840019 0 0 1 0.588638-28.638524z" fill="#79C1BB" p-id="4565"></path><path d="M1009.284047 761.262653l-102.755742-14.792732c-15.765265-2.252181-34.371348-15.509335-41.486192-29.739022l-45.913773-91.904326c-3.45505-6.986879-8.240934-10.595486-12.87326-10.595487-4.606733 0-9.187873 3.608608-12.847667 10.595487l-45.913774 91.904326c-7.08925 14.024943-25.74652 27.486841-41.486191 29.739022l-102.755742 14.792732c-15.739672 2.252181-19.399465 13.103597-7.882632 24.057384l74.321961 71.45555c11.337682 11.004974 18.452526 32.579841 15.739672 48.140361l-17.4544 100.989828c-1.919472 11.184124 2.482517 17.812702 10.390742 17.812701a22.265877 22.265877 0 0 0 10.390743-3.019969l91.750768-47.756467c7.140436-3.583015 16.353903-5.502487 25.541776-5.502487 9.239059 0 18.657269 1.919472 25.567369 5.502487l91.801955 47.756467a22.624178 22.624178 0 0 0 10.390742 3.019969c7.857039 0 12.259029-6.628577 10.36515-17.812701l-17.505586-100.989828c-2.661668-15.534928 4.401989-37.135388 15.765264-48.140361l74.296369-71.45555c11.772762-10.953788 8.29212-21.805204-7.447552-24.057384z" fill="#79C1BB" p-id="4566"></path></svg>