<?xml version="1.0" standalone="no"?><!DOCTYPE svg PUBLIC "-//W3C//DTD SVG 1.1//EN" "http://www.w3.org/Graphics/SVG/1.1/DTD/svg11.dtd"><svg t="1511068581394" class="icon" style="" viewBox="0 0 1024 1024" version="1.1" xmlns="http://www.w3.org/2000/svg" p-id="5262" xmlns:xlink="http://www.w3.org/1999/xlink" width="200" height="200"><defs><style type="text/css"></style></defs><path d="M845.06826 388.872728c0-179.560562-149.386332-325.174987-333.801459-325.174987-184.353728 0-333.799412 145.614425-333.799412 325.174987 0 59.33027 16.571421 114.733091 45.017286 162.607448h-0.352017l289.105491 406.500201 289.233403-406.500201h-0.392949c28.526707-47.87538 44.989657-103.277178 44.989657-162.607448z m-333.771783 162.550143c-92.15691 0-166.899194-72.76628-166.899194-162.588005 0-89.741907 74.742285-162.569586 166.899194-162.569586 92.246961 0 166.902264 72.827679 166.902264 162.569586 0 89.820702-74.655304 162.588005-166.902264 162.588005z" fill="#40D0FF" p-id="5263"></path></svg>