<?xml version="1.0" standalone="no"?><!DOCTYPE svg PUBLIC "-//W3C//DTD SVG 1.1//EN" "http://www.w3.org/Graphics/SVG/1.1/DTD/svg11.dtd"><svg t="1510676945605" class="icon" style="" viewBox="0 0 1024 1024" version="1.1" xmlns="http://www.w3.org/2000/svg" p-id="6757" xmlns:xlink="http://www.w3.org/1999/xlink" width="200" height="200"><defs><style type="text/css"></style></defs><path d="M841.7 63.1H182.3c-66.2 0-119.9 53.6-119.9 119.7v658.4c0 66.1 53.7 119.7 119.9 119.7h659.3c66.2 0 119.9-53.6 119.9-119.7V182.8c0-66.1-53.7-119.7-119.8-119.7zM296.8 822.4V344.6h-47v353.5h-52.5V281h99.4V167.8h63.5V281h102.2v353.5c1.8 33.1-13.8 52.5-47 58-18.4 0-31.3 1-38.7 2.8-1.9-22.1-7.4-46-16.6-71.8h13.8c5.5 1.9 9.2 2.8 11 2.8 16.6 1.9 23.9-6.4 22.1-24.9V344.6h-47v477.8h-63.2z m201.6 2.7V485.4h107.7V167.8h69v118.8h165.7v66.3H675.2v132.6h138.1v339.7h-69v-47H567.5v47h-69.1z m69.1-270.6v162.9h176.8V554.5H567.5z" fill="#1296db" p-id="6758"></path></svg>