<?xml version="1.0" standalone="no"?><!DOCTYPE svg PUBLIC "-//W3C//DTD SVG 1.1//EN" "http://www.w3.org/Graphics/SVG/1.1/DTD/svg11.dtd"><svg t="1511072068758" class="icon" style="" viewBox="0 0 1154 1024" version="1.1" xmlns="http://www.w3.org/2000/svg" p-id="8162" xmlns:xlink="http://www.w3.org/1999/xlink" width="225.390625" height="200"><defs><style type="text/css"></style></defs><path d="M371.167319 50.589957l0.435745-0.065361 4.150468 2.472851c12.647489 7.549277 30.502128 5.980596 39.968681 1.503319-10.545021-6.296511-26.35166-10.250894-36.864-7.963234 7.995915-7.189787 14.107234-22.157617 15.272851-34.304-9.216 4.967489-21.057362 18.442894-22.451745 33.094808l-0.512 5.261617z m432.019064 6.470809c3.377021 1.764766 6.732255 3.573106 10.054808 5.414128-8.388085-7.974128-14.749957-23.79166-15.980936-36.667915 10.00034 5.403234 22.843915 20.000681 24.358128 35.916255l0.544681 5.708255-0.206979-0.043574c8.987234 5.207149 17.80017 10.675745 26.417021 16.394894l0.860596 0.250553c-9.553702-8.867404-16.797957-26.809191-18.19234-41.417532 11.220426 6.067745 25.643574 22.473532 27.342978 40.339064l0.63183 6.427234a14.662809 14.662809 0 0 1-3.377021-1.024l-0.27234 0.163404a487.772596 487.772596 0 0 1 26.863659 19.924425c1.307234 0.359489 2.549106 0.773447 3.725617 1.26366-9.531915-10.697532-15.59966-31.079489-15.621447-47.180255 11.65617 7.778043 25.730723 27.234043 25.752511 46.940595v7.080852a16.198809 16.198809 0 0 1-3.573106-1.437958l-1.307234 0.620936c10.555915 8.802043 20.741447 18.03983 30.523914 27.669787 2.048 0.762553 3.987064 1.65583 5.740937 2.658043-10.338043-14.848-14.891574-41.319489-12.494979-61.527149 13.442723 11.525447 28.181787 38.00783 25.251404 62.725447l-1.056681 8.910979a20.632511 20.632511 0 0 1-4.270298-2.363915l-2.20051 0.740766a494.820766 494.820766 0 0 1 32.713532 37.986042c1.26366 0.762553 2.44017 1.579574 3.562212 2.418383-10.218213-19.673872-11.547234-52.539915-5.425021-76.701957 14.499404 16.11166 28.192681 50.633532 20.708766 80.209702l-2.690723 10.63217a25.120681 25.120681 0 0 1-4.814979-3.540425l-1.361702 0.261446a493.437277 493.437277 0 0 1 28.083745 43.345703c1.122043 0.947745 2.178723 1.917277 3.170042 2.908595-8.224681-23.323234-4.608-59.871319 5.893447-85.62383 13.540766 20.076936 23.31234 60.350638 10.457872 91.854979l-4.618893 11.329362a28.105532 28.105532 0 0 1-4.771405-4.640681l-1.361702 0.065362a493.121362 493.121362 0 0 1 20.621617 44.249872c2.353021 2.28766 4.466383 4.640681 6.26383 7.04817-5.196255-26.144681 4.281191-64.577362 19.423319-90.427915 11.362043 23.486638 15.63234 67.954383-2.930383 99.600341l-6.666893 11.394723a29.902979 29.902979 0 0 1-4.379234-5.697361l-3.529532-0.326809a489.940426 489.940426 0 0 1 16.046298 55.884255c0.849702 1.372596 1.634043 2.723404 2.342127 4.085107-0.925957-28.650213 15.861106-67.769191 36.482724-92.573958 7.930553 26.918128 4.662468 74.860936-20.588937 105.19966l-9.074383 10.915404c-1.459745-2.069787-2.668936-4.357447-3.649361-6.819404l-1.372596-0.348596c3.387915 18.813277 5.697362 37.996936 6.884766 57.485617 7.331404-30.142638 31.090383-65.26366 56.102128-86.658723 3.682043 31.210213-9.019915 83.488681-42.604937 112.204255l-12.091914 10.316255-0.522894-1.143829a496.160681 496.160681 0 0 1-3.31166 53.465872c0.261447 1.29634 0.490213 2.570894 0.653617 3.834553 9.880511-31.264681 42.833702-67.126468 74.490554-86.059574-1.634043 32.059915-23.377702 82.55183-62.115405 105.711659l-13.943829 8.333617a37.691915 37.691915 0 0 1-1.350809-8.736681l-0.871489-0.599149c-3.812766 23.377702-9.259574 46.188936-16.23149 68.324766 19.150979-30.360511 60.65566-59.827745 97.508766-72.834723-8.867404 34.609021-43.716085 84.904851-91.092425 101.637447l-17.048511 6.013276a40.72034 40.72034 0 0 1-0.108936-4.335659 489.559149 489.559149 0 0 1-25.512851 55.230638c24.69583-25.883234 70.590638-46.679149 108.93617-52.430979-15.261957 32.310468-58.99983 75.100596-108.696511 82.562724l-17.865532 2.668936c0.141617-1.241872 0.326809-2.483745 0.599149-3.714723a494.98417 494.98417 0 0 1-36.319319 50.284936c34.03166-22.375489 89.83966-33.922723 133.642894-30.828936-25.033532 32.212426-84.425532 69.011064-141.627915 64.958638l-20.588936-1.448851c0.163404-0.490213 0.348596-0.969532 0.544681-1.448851a496.36766 496.36766 0 0 1-52.224 46.47217c43.40017-13.257532 104.763915-10.12017 150.222978 4.836766-36.428255 28.43234-111.822979 52.387404-173.535319 32.081702l-20.501787-6.743149a491.628936 491.628936 0 0 1-69.381447 35.240851c49.435234-4.542638 116.529021 15.850213 161.835575 45.045107-45.426383 19.662979-130.037106 24.162043-188.53583-13.540766l-21.046468-13.55166c0.620936-0.577362 1.274553-1.14383 1.939064-1.677617a493.80766 493.80766 0 0 1-142.227064 20.828596c-47.953702 0-94.316936-6.862979-138.141958-19.608511 0.708085 0.577362 1.41617 1.176511 2.102468 1.797447l-21.046468 13.551659c-58.498723 37.691915-143.12034 33.192851-188.535829 13.55166 44.925277-28.955234 111.310979-49.260936 160.615489-45.154042a492.238979 492.238979 0 0 1-69.501277-34.696171l-19.161872 6.296511c-61.71234 20.316596-137.117957-3.649362-173.535319-32.092596 44.064681-14.488511 103.097191-17.876426 146.214128-5.991489a497.587745 497.587745 0 0 1-49.587745-43.726979l-18.67166 1.318128c-57.22417 4.063319-116.594383-32.735319-141.627915-64.947745 41.221447-2.919489 93.042383 7.135319 127.389958 26.972596a494.897021 494.897021 0 0 1-31.242894-42.986213l-16.089872-2.418383c-49.707574-7.451234-93.434553-50.241362-108.696511-82.540936 34.892255 5.228936 76.059234 22.92017 101.800851 45.589787a489.341277 489.341277 0 0 1-20.686978-44.838128l-14.848-5.239829C54.609702 657.124766 19.761021 606.83983 10.893617 572.219915c33.00766 11.65617 69.75183 36.515404 90.820085 63.400851a490.713872 490.713872 0 0 1-11.928511-49.631319l-13.780425-8.246468c-38.748596-23.170723-60.481362-73.662638-62.126298-105.71166 28.072851 16.77617 57.169702 46.875234 70.285617 75.285787a494.613787 494.613787 0 0 1-2.690723-48.563744l-8.366298-7.146213c-33.585021-28.715574-46.286979-80.983149-42.61583-112.204255 21.885277 18.715234 42.790128 47.910128 52.61617 75.111489 1.078468-13.301106 2.67983-26.449702 4.793192-39.434894l-8.529702-10.24c-25.229617-30.338723-28.508596-78.292426-20.567149-105.199659 17.974468 21.591149 33.029447 54.086809 35.981617 81.04851 3.594894-15.12034 7.876085-29.957447 12.810893-44.478638a24.859234 24.859234 0 0 1-1.830127 2.048l-6.677788-11.38383c-18.55183-31.656851-14.292426-76.135489-2.919489-99.611234 14.139915 24.129362 23.31234 59.195915 20.262128 85.024681a490.604936 490.604936 0 0 1 19.390638-42.572255l-4.096-10.065702c-12.854468-31.526128-3.082894-71.788936 10.457872-91.865873 8.97634 22.005106 12.91983 51.908085 8.736681 74.686639a494.35234 494.35234 0 0 1 21.86349-33.443405l-2.331234-9.226893c-7.473021-29.57617 6.209362-64.098043 20.719659-80.209702 5.196255 20.512681 5.011064 47.321872-1.41617 66.995744a498.840511 498.840511 0 0 1 25.730723-29.630638l-0.980425-8.344511c-2.941277-24.728511 11.786894-51.221787 25.24051-62.73634 2.102468 17.713021-1.154723 40.241021-8.932766 55.524766 8.94366-8.714894 18.225021-17.102979 27.811405-25.120681v-5.468596c0.032681-19.717447 14.09634-39.162553 25.763404-46.951489-0.021787 13.115915-4.041532 29.053277-10.675745 40.306383a481.977191 481.977191 0 0 1 22.277447-16.231489l0.326809-3.638468c1.721191-17.865532 16.14434-34.271319 27.364766-40.339064-1.056681 10.980766-5.414128 23.857021-11.569022 33.334468a483.927149 483.927149 0 0 1 20.806809-12.418724l0.174298-1.819234c1.525106-15.904681 14.357787-30.502128 24.358127-35.894468-0.947745 9.945872-4.967489 21.667404-10.610383 30.142639l0.446639-0.23966-0.457532 0.250553a37.365106 37.365106 0 0 1-5.577532 6.721362c11.329362-3.540426 29.902979 0.849702 42.038468 8.093957-10.261787 4.869447-29.641532 6.568851-43.356596-1.634042l-4.379234-2.614468a13.660596 13.660596 0 0 1-3.006638 0.90417l0.348596-3.638468c-7.331404 4.270298-14.542979 8.736681-21.612937 13.399149-1.80834 2.614468-3.758298 4.934809-5.806297 6.830298 12.712851-3.965277 33.585021 0.969532 47.223829 9.107063-11.53634 5.468596-33.290894 7.364085-48.694468-1.830127l-4.923915-2.941277a14.662809 14.662809 0 0 1-3.377021 1.002213l0.152511-1.623149a495.942809 495.942809 0 0 0-24.434383 18.595404 35.731064 35.731064 0 0 1-2.668936 3.377022c13.508085-5.664681 36.842213-2.429277 52.594383 5.065531-12.037447 7.168-35.654809 11.492766-53.465873 3.028426l-5.675574-2.701617a15.686809 15.686809 0 0 1-2.603575 1.14383 489.689872 489.689872 0 0 0-30.513021 28.82451c16.405787-8.104851 44.740085-7.331404 64.849702-0.555574-14.030979 10.784681-42.986213 19.771915-66.581787 11.830468l-6.797617-2.28766a486.67234 486.67234 0 0 0-32.866043 39.511149c18.628085-12.52766 53.269787-16.122553 78.837107-11.067915-15.327319 15.338213-49.086638 30.83983-79.011405 24.93549l-8.638638-1.710298a493.110468 493.110468 0 0 0-26.711149 42.659404c19.281702-15.577872 55.296-24.162043 83.249021-22.626042-14.57566 19.33617-49.457021 41.71166-83.445106 39.81617l-8.693106-0.479319a488.186553 488.186553 0 0 0-18.835064 41.809702c19.423319-17.081191 52.801362-29.587064 80.285957-31.994553-12.56034 22.865702-46.35234 52.071489-82.900425 55.274212l-6.067745 0.533788a489.07983 489.07983 0 0 0-13.911149 50.034383c17.277277-22.13583 51.374298-41.962213 80.787064-49.500596-9.33583 26.471489-40.088511 63.400851-78.325106 73.205106l-7.429447 1.89549a497.239149 497.239149 0 0 0-6.307404 60.786383c12.778213-29.565277 49.435234-61.20034 82.791489-76.13549-5.294298 30.95966-32.234213 77.540766-72.551489 95.59149l-10.653958 4.76051c0.098043 16.438468 0.980426 32.659064 2.647149 48.661787 11.176851-29.57617 39.369532-62.148085 67.202723-80.754382-0.032681 32.103489-19.205447 83.630298-56.733957 108.707404l-6.067745 4.052425a489.646298 489.646298 0 0 0 14.510298 61.211234c4.379234-35.513191 28.780936-79.566979 56.080341-107.051574 7.059064 35.022979-2.505532 95.47166-37.909788 131.115574l-7.331404 7.385873a489.23234 489.23234 0 0 0 23.857021 52.790468c-1.830128-35.513191 13.638809-82.399319 34.93583-114.067064 13.540766 33.062128 15.59966 94.218894-12.418723 135.91966l-5.425022 8.061276a487.859745 487.859745 0 0 0 34.456511 48.825192c-11.133277-39.140766-5.588426-95.645957 10.348936-136.453447 23.31234 33.476085 40.829277 101.092766 19.957107 154.536851l-4.520851 11.623489a488.818383 488.818383 0 0 0 58.923574 53.12817c-25.120681-39.434894-35.731064-106.201872-29.30383-157.412766 34.881362 30.295149 72.845617 99.698383 64.75166 164.166809l-2.102468 16.612766a482.020766 482.020766 0 0 0 68.651574 36.493617c-32.702638-35.84-57.921362-96.277787-64.512-146.867745 44.326128 21.983319 102.4 83.69566 111.398128 152.706724l1.557787 12.037446a480.37583 480.37583 0 0 0 142.118128 21.384171c51.014809 0 100.177702-7.95234 146.355744-22.702298l1.568681-12.059234c8.987234-69.011064 67.061106-130.723404 111.398128-152.717617-6.53617 50.197787-31.406298 110.058213-63.72766 145.996255a483.60034 483.60034 0 0 0 67.692937-36.896681l-1.928171-15.327319c-8.093957-64.468426 29.870298-133.882553 64.740766-164.166808 6.242043 49.642213-3.529532 113.914553-27.027063 153.719829a489.036255 489.036255 0 0 0 55.775319-51.733787l-3.649362-9.33583c-20.861277-53.422298-3.34434-121.060766 19.978894-154.525957 15.131234 38.759489 20.893957 91.702468 11.884936 130.451064a491.726979 491.726979 0 0 0 31.144851-45.459064l-3.660256-5.425021c-28.029277-41.700766-25.959489-102.868426-12.418723-135.91966 19.880851 29.565277 34.69617 72.442553 35.066553 106.899064a488.044936 488.044936 0 0 0 21.024681-48.356766l-4.629787-4.651575c-35.404255-35.654809-44.968851-96.081702-37.909787-131.115574 25.196936 25.36034 47.910128 64.817021 54.707744 98.652596 5.12-18.007149 9.216-36.439149 12.266213-55.230639l-2.451064-1.634042c-37.539404-25.077106-56.701277-76.603915-56.744851-108.707404 25.36034 16.939574 51.025702 45.480851 63.836596 72.802042 1.187404-14.009191 1.830128-28.16 1.830128-42.485106v-0.108936l-6.459915-2.875915c-40.317277-18.061617-67.268085-64.63183-72.55149-95.602383 29.848511 13.366468 62.311489 40.099404 77.987405 66.777872a496.563745 496.563745 0 0 0-6.165788-52.61617l-2.766978-0.708085c-38.236596-9.804255-68.989277-46.733617-78.325107-73.205107 26.220936 6.732255 56.167489 23.214298 74.588596 42.397958a489.341277 489.341277 0 0 0-12.549447-43.356596l-1.220085-0.108936c-36.558979-3.19183-70.350979-32.408511-82.933106-55.263319 24.412596 2.135149 53.465872 12.233532 73.270468 26.417021a492.249872 492.249872 0 0 0-16.590979-35.970723l-3.899915 0.217872c-33.988085 1.884596-68.88034-20.48-83.445106-39.805277 24.358128-1.361702 54.838468 5.011064 75.035234 16.961362a491.977532 491.977532 0 0 0-23.050894-36.101447l-4.085106 0.806128c-29.93566 5.90434-63.684085-9.586383-79.022298-24.946383 21.89617-4.313872 50.459234-2.309447 69.90434 6.220255a490.354383 490.354383 0 0 0-28.105532-33.258212l-2.625361 0.893276c-23.584681 7.930553-52.539915-1.045787-66.56-11.841362 16.874213-5.686468 39.54383-7.135319 56.102127-2.658042a491.999319 491.999319 0 0 0-27.28851-25.360341l-2.777873 1.307234c-17.80017 8.475234-41.417532 4.139574-53.454978-3.017531 13.333787-6.340085 32.081702-9.629957 45.709617-7.069958a480.669957 480.669957 0 0 0-24.554213-18.693447l-3.812766 2.28766c-15.403574 9.194213-37.158128 7.298723-48.694468 1.830128 12.636596-7.549277 31.50434-12.342468 44.315234-9.826043a479.101277 479.101277 0 0 0-25.305872-16.122553 14.390468 14.390468 0 0 1-1.851915-0.653617l-4.379234 2.614468c-13.725957 8.192-33.105702 6.503489-43.356596 1.634042 12.004766-7.168 30.316936-11.547234 41.668085-8.213787a445.472681 445.472681 0 0 0-9.913191-5.51217z m-27.321192-11.874043c-10.51234-2.28766-26.318979 1.677617-36.864 7.974128 9.45566 4.477277 27.321191 6.045957 39.968681-1.514213l4.139575-2.472851 0.435744 0.076256-0.501106-5.272511C781.649702 29.325617 769.80834 15.872 760.59234 10.893617c1.165617 12.146383 7.28783 27.125106 15.283745 34.293106z" p-id="8163" fill="#FDE050"></path></svg>